Coordinates
version=1
nRows=6
nColumns=36
inDegrees=yes

Units are S.I. units (second, meters, Newtons, ...)
If the header above contains a line with 'inDegrees', this indicates whether rotational values are in degrees (yes) or radians (no).

endheader
time	pelvis_tilt	pelvis_list	pelvis_rotation	pelvis_tx	pelvis_ty	pelvis_tz	hip_flexion_r	hip_adduction_r	hip_rotation_r	knee_angle_r	knee_angle_r_beta	ankle_angle_r	subtalar_angle_r	mtp_angle_r	hip_flexion_l	hip_adduction_l	hip_rotation_l	knee_angle_l	knee_angle_l_beta	ankle_angle_l	subtalar_angle_l	mtp_angle_l	lumbar_extension	lumbar_bending	lumbar_rotation	arm_flex_r	arm_add_r	arm_rot_r	elbow_flex_r	pro_sup_r	arm_flex_l	arm_add_l	arm_rot_l	elbow_flex_l	pro_sup_l
      2.47457630	     -0.96794871	      0.05597486	      5.60588946	      0.40366113	      0.93891964	     -0.07621798	     -3.19895138	     -4.99524833	    -14.97900198	      0.61044401	      0.01065426	      1.33825158	     -9.78508099	     -7.49999987	     -1.48571011	     -4.36644042	     -5.53567330	      0.92102255	      0.01607488	     -0.52236165	     -6.33414666	     -7.49999987	      3.86188355	     -3.86846943	     -6.15376346	    121.31097453	    -12.74938409	     20.23576698	     40.92508945	     87.50452812	    105.64047438	     -2.80263306	     14.59135498	     20.79781258	     73.78859265
      2.49152540	     -0.98740797	      0.04682376	      5.55740233	      0.40387776	      0.93893876	     -0.07593930	     -3.18887502	     -4.99450430	    -15.00914779	      0.59580511	      0.01039876	      1.30163425	     -9.68997147	     -7.49999987	     -1.46748114	     -4.37683031	     -5.53090194	      0.92788409	      0.01619463	     -0.52003441	     -6.33434987	     -7.49999987	      3.90092448	     -3.85493775	     -6.34256716	    121.72233003	    -12.85016787	     21.04008900	     41.10294932	     87.37662804	    106.11947805	     -3.29882221	     14.95217214	     20.74297623	     74.17464321
      2.50847460	     -1.02384716	      0.02994558	      5.51627224	      0.40368512	      0.93900551	     -0.07606394	     -3.13524508	     -4.99857664	    -15.03691775	      0.59793734	      0.01043598	      1.31215394	     -9.60161901	     -7.49999987	     -1.43108608	     -4.38387455	     -5.47623964	      0.91207485	      0.01591871	     -0.57347785	     -6.46830847	     -7.49999987	      3.98079644	     -3.81004367	     -6.45263842	    121.98023088	    -12.62794740	     21.20345857	     41.40169472	     87.42670223	    106.53187913	     -3.79473653	     15.79690826	     20.67269806	     74.57283065
      2.52542370	     -1.03819981	      0.00652646	      5.46159995	      0.40390367	      0.93897457	     -0.07575481	     -3.11230771	     -4.98535687	    -14.99196233	      0.60040152	      0.01047898	      1.24947735	     -9.59665491	     -7.49999987	     -1.41933566	     -4.41259907	     -5.48597031	      0.91656237	      0.01599703	     -0.60642960	     -6.53988083	     -7.49999987	      4.03501678	     -3.78927598	     -6.14781552	    122.69848563	    -12.68048605	     21.96889248	     41.02969564	     87.06921507	    107.12334162	     -3.82483506	     17.17110948	     19.92309603	     73.98122985
      2.54237290	     -1.01980645	     -0.00953849	      5.43401375	      0.40367047	      0.93907057	     -0.07589220	     -3.13576958	     -4.96128779	    -15.12653925	      0.60956357	      0.01063889	      1.27960393	     -9.34983237	     -7.49999987	     -1.45242366	     -4.43412993	     -5.45048822	      0.90055830	      0.01571771	     -0.61805184	     -6.49654399	     -7.49999987	      4.12991539	     -3.80295847	     -5.75864866	    123.48223883	    -13.15602085	     23.30553297	     40.11431569	     86.94278719	    107.64054129	     -3.46935711	     18.31345264	     18.97734737	     74.04973194
      2.55932200	     -1.01345230	     -0.02995862	      5.38268915	      0.40380519	      0.93904870	     -0.07553768	     -3.14665916	     -4.93345564	    -15.10233950	      0.61019216	      0.01064986	      1.21024702	     -9.42781140	     -7.49999987	     -1.46954894	     -4.47386766	     -5.48588568	      0.89573833	      0.01563358	     -0.63731122	     -6.45737484	     -7.49999987	      4.22496109	     -3.74840894	     -5.44838599	    124.45915264	    -13.31343043	     25.05908938	     38.44481368	     85.09289582	    108.31002977	     -3.34065761	     20.91132529	     17.81515252	     72.92988145
